<?xml version="1.0" encoding="utf-8"?>
<!-- Generator: Adobe Illustrator 24.0.1, SVG Export Plug-In . SVG Version: 6.00 Build 0)  -->
<svg version="1.1" id="Capa_1" xmlns="http://www.w3.org/2000/svg" xmlns:xlink="http://www.w3.org/1999/xlink" x="0px" y="0px"
	 width="425.2px" height="392.1px" viewBox="0 0 425.2 392.1" style="enable-background:new 0 0 425.2 392.1;" xml:space="preserve"
	>
<style type="text/css">
	.st0{clip-path:url(#SVGID_2_);}
	.st1{fill:#FEFEFE;}
	.st2{fill:#FDFDFD;}
</style>
<g>
	<defs>
		<ellipse id="SVGID_1_" cx="180.2" cy="203.8" rx="276.4" ry="267.7"/>
	</defs>
	<clipPath id="SVGID_2_">
		<use xlink:href="#SVGID_1_"  style="overflow:visible;"/>
	</clipPath>
	<g class="st0">
		<path d="M213.2,23.9c2.1,0,4.3,0,6.4,0c1.3,1.9,0.5,4.1,0.7,6.2c0.1,1-0.1,2.1,0.1,3.1c0.8-0.3,1.1-0.9,1.6-1.4
			c2.4-2.3,5-3.7,8.4-4.1c8.5-0.9,16.8-2.5,25.3-3c11.5-0.6,20.5,9.1,21.5,20.1c0.6,6.6,0.8,13.3,0.6,19.9
			c-0.2,5.8-0.7,11.5-3.7,16.7c-0.9,1.6-1.8,3.3-3.1,4.6c-1.1,1.2-1.3,2.2,0,3.4c5,4.3,6.5,9.8,6.3,16.2c-0.2,10.1,0,20.2-0.1,30.3
			c0,6.9-2.7,12.7-7.1,17.9c-5.3,6.3-11.4,11.9-17.2,17.7c-1.6,1.6-3.1,3.4-4.6,5.2c-0.6,0.7-1.1,1.3-0.7,2.7c1.7-1.4,3-2.8,4.3-4.2
			c1.2-1.2,2.6-2,4.4-2.3c8.7-1.6,17.5-2.9,26.3-3.9c5.9-0.7,11,1.4,15.3,5.4c2.1,1.9,2.2,1.9,3.6-0.6c3.3-6,6.4-12,9.7-18
			c1.3-2.4,3.1-3.7,5.8-4.1c5.1-0.7,10.2-1.6,15.3-1.9c4.8-0.3,6.5,1.3,6.6,6.2c0.1,6.9,0,13.8,0,20.7c0,0.6-0.1,1.2,0.2,1.9
			c1.1-0.2,1.6-1.1,2.3-1.8c5.3-5.1,10.2-10.6,15.9-15.3c1.5-1.2,3.1-1.9,5-2.2c6.1-0.9,12.1-1.6,18.2-2.4c7.2-1,8.6,0,9.4,7
			c1.6,13.3,2.9,26.6,4.4,39.9c1.6,14.5,3.2,29,4.6,43.6c1.3,12.8,3.1,25.7,3.4,38.6c0,0.3,0.1,0.5,0.3,0.7c0,0.4,0,0.7,0,1.1
			c-0.5,1.6-1.5,2.8-2.6,3.9c-31.8,32.8-64.5,64.6-96.6,97.1c-2.5,2.6-5.1,3.5-8.6,3.5C119.1,392-56.6,392-232.3,392
			c-4.3,0-3.7,0.6-3.7-3.6c0-31.3,0-62.6-0.1-93.8c0-2.3,0.7-4,2.3-5.6C-157.8,213.1-81.9,137.2-6,61.4c3.1-3.1,6.4-5.8,9.5-8.9
			c1.3-1.3,2.9-1.9,4.7-2.2c6.8-0.9,13.5-1.9,20.3-2.6c2.3-0.2,4.9-0.7,6.4,1.9c0.6,0.9,1.3,0.4,1.7-0.1c4-5.2,10-4.2,15.4-4.9
			c2.6-0.3,3.7,1.2,3.9,4.2c0.4,7.3,0.7,14.7,0.5,22.2c1.3-0.2,1.8-1.1,2.4-1.7C66.3,62,74,54.9,81,47.1c6.8-7.4,15-10.2,24.7-10.2
			c7.1-0.1,13.5,1.6,18.9,6.4c1.5,1.3,2.8,2.8,3.8,4.4c1.1,1.8,2.2,1.7,3.5,0.3c1.7-1.7,3.5-3.3,5.1-5.1c1.7-1.9,3.7-2.4,6.2-1.8
			c4.4,1,8.8,2.3,13.1,3.5c1.9,0.6,2.9,0,3.8-1.7c1.7-3.4,3.2-6.9,4.8-10.4c1.1-2.4,2.8-3.7,5.4-4.1c4.5-0.6,8.9-1.4,13.4-1.7
			c2.5-0.1,4.8,0.3,5.8,3.1c0.3,1,0.9,0.9,1.6,0.3c0.3-0.3,0.7-0.5,1-0.9c3.6-4.5,8.8-4.9,14-5C208.5,24.4,210.9,24.3,213.2,23.9z"
			/>
		<path class="st1" d="M129,352.4c0-6,0-12,0-17.9c0-38.5-0.3-77.1,0.1-115.6c0-2.7,0.9-4,3.4-4.8c3.4-1.1,6.6-2.4,9.9-3.8
			c2-0.8,2.9-0.8,3.5,1.8c4.1,18.5,8.9,36.8,13.7,55.1c0.3,1,0.6,2,1.4,2.9c1.7-7.2,3.3-14.5,4.9-21.8c3.5-15.7,6.9-31.4,10.3-47.2
			c0.6-2.6,1.7-4.2,4.3-5c3.5-1.1,7-2.5,10.4-3.9c1.5-0.6,1.8-0.2,1.8,1.2c0,3.7,0.2,7.4,0.2,11.2c0,38.9,0,77.8-0.1,116.7
			c0,9.3,1.6,6.7-7.2,10.3c-3.3,1.4-6.8,2.5-10.6,3.9c0-21.4,0-42.6,0-63.9c-2.4,0.6-4,1-4.6,3.8c-2.8,14.9-5.9,29.8-9,44.7
			c-0.2,0.8-0.4,1.5-0.8,2.9c-1.9-7.9-3.7-15.1-5.5-22.4c-1.5-6-2.9-12-4.4-18c-0.2-0.6,0.2-2.2-1.2-1.8c-1.1,0.3-2.8,0.5-2.9,2.3
			c0,0.6,0,1.2,0,1.9c0,18.2-0.1,36.3-0.1,54.5c0,6.7-0.1,6.7-6.2,9c-3.5,1.3-7,2.6-10.4,3.9C129.9,352.4,129.7,352.3,129,352.4z"/>
		<path class="st1" d="M255.8,313.5c0-0.9,0-1.3,0-1.7c0-43.2,0.1-86.4,0.1-129.6c0-4.8,0-4.8,4.7-5.5c7.4-1,14.7-2.1,22.1-2.8
			c8.8-0.9,16.7,5.7,17.8,14.5c0.5,4.1,0.5,8.1,0.5,12.2c0,28.3-0.1,56.7,0,85c0,9.6-9.6,23.3-19.8,24.2
			C272.8,310.4,264.4,312.2,255.8,313.5z"/>
		<path class="st1" d="M259.8,89.5c1,0.3,1.9,0.6,2.8,0.9c6.9,2.2,9.9,5.9,10,13.2c0.2,6.3,0.1,12.6,0.1,18.9c0,3.6,0,7.3,0,10.9
			c-0.2,14.3-8.4,23.9-22.4,26c-7.2,1.1-14.4,2-21.6,3.1c-1.3,0.2-1.8,0.1-1.7-1.3c0-0.3,0-0.7,0-1.1c0.1-41.5,0.1-82.9,0.1-124.4
			c0-2.3,0.7-3,2.9-3.2c7.6-0.9,15.1-1.8,22.7-3c12.1-1.9,19.4,7.6,19.8,15.9c0.5,8.8,0.5,17.5-0.1,26.3c-0.5,6.6-4.3,11.4-9.5,15.3
			C262,87.7,260.7,88.2,259.8,89.5z"/>
		<path class="st1" d="M115.1,296.3c0,13.5,0,26.9,0,40.4c0,10.9-8.7,21-19.5,22.6c-3.7,0.5-7.5,1.6-11.3,0.8
			c-8.2-1.7-13.4-7.7-13.5-16c-0.4-27.5-0.3-55.1-0.1-82.6c0.1-10.8,10.1-20.7,20.1-21.6c2.4-0.2,4.8-0.5,7.1-0.6
			c9.2-0.3,16.7,6.5,16.8,15.7c0.2,13.8,0,27.6,0,41.5C114.9,296.3,115,296.3,115.1,296.3z"/>
		<path class="st1" d="M383.3,288.9c-1.8,0.7-2.2-0.8-2.3-2.8c-0.4-5.7-0.9-11.5-1.3-17.2c-0.1-1.6-0.5-2.4-2.4-2.1
			c-3.4,0.6-6.8,1-10.2,1.4c-1.3,0.2-1.7,0.7-1.8,2c-0.4,6.4-1,12.7-1.5,19.1c-0.1,1.8-0.7,2.4-2.5,2.6c-4.1,0.4-8.1,0.9-12.1,1.6
			c-2,0.3-2.8,0-2.5-2.3c0.9-7.3,1.6-14.6,2.3-21.9c1.7-16.3,3.4-32.6,5.1-48.8c1.9-18,3.9-36.1,5.8-54.1c0.2-1.5,0.6-2.2,2.1-2.4
			c7-0.9,14-1.9,21.1-2.8c1.3-0.2,1.8,0.1,2,1.6c2.3,21.4,4.6,42.8,6.9,64.1c2.1,19.3,4.1,38.5,6.2,57.8c0.2,1.8-0.2,2.5-2,2.6
			C392.2,287.6,388.1,288.3,383.3,288.9z"/>
		<path class="st1" d="M169.1,87.7c0-17.4,0-34.7-0.1-52.1c0-2,0.6-2.5,2.5-2.7c3.9-0.4,7.7-0.9,11.6-1.5c1.4-0.2,2.1-0.1,2,1.6
			c-0.1,3,0,6,0,9c0.1,29.5,0.3,59,0.5,88.5c0,1.4,0,2.8,0.1,4.3c0.2,3.9,1.6,5.5,4.9,5.6c4.1,0.1,7.5-2.4,7.8-5.7
			c0.1-0.9,0-1.8,0-2.7c0-32.5,0.1-65,0.1-97.5c0-4.8,0-4.8,4.8-5.4c3-0.4,6-0.6,8.9-1.2c1.8-0.4,2.1,0.3,2.1,1.9
			c0,3.6,0.1,7.3,0.1,10.9c0,29.7-0.3,59.4,0.1,89c0.2,11.8-7.5,23.7-22.5,24.9c-3.7,0.3-7.3,0.8-11.1-0.2
			c-7.1-2-11.9-10.2-11.8-15.9C169.3,121.5,169.1,104.6,169.1,87.7C169.1,87.7,169.1,87.7,169.1,87.7z"/>
		<path class="st1" d="M6.3,303.9c0-14.1-0.1-28.2,0-42.3c0.1-13.2,8.4-21.8,21.6-22.6c5.1-0.3,10.3-0.7,15.1,1.5
			c7.9,3.7,12.5,9.7,12.8,18.6c0.2,4.7,0.1,9.4,0.3,14.1c0.1,2-0.5,3-2.7,3.3c-4.4,0.6-8.7,1.5-13.1,2.3c-1.6,0.3-2.2,0.1-2.2-1.8
			c0.1-5.3,0-10.6-0.2-15.9c-0.1-3.5-1.5-5.1-4.3-5.9c-3.4-1-6.5-0.1-8.4,2.3c-0.8,1-1.2,2.2-1.2,3.4c-0.1,3.6-0.2,7.3-0.2,10.9
			c0,24.5,0,48.9,0,73.4c0,3.8,2.4,6.5,6,6.6c5.3,0.2,8.1-1.9,8.2-6.4c0.1-6.1,0.2-12.2,0-18.3c0-2.1,0.6-2.7,2.6-3
			c4.2-0.6,8.4-1.5,12.5-2.4c2-0.4,2.9-0.2,2.9,2.2c0.1,8.4,0.1,16.8-0.4,25.2c-0.6,9.2-10.1,18-19.9,18.6c-3.1,0.2-6.2,0.1-9.3,0.2
			c-9.9,0.3-20.5-9.4-20.2-20.4C6.6,333,6.3,318.5,6.3,303.9C6.3,303.9,6.3,303.9,6.3,303.9z"/>
		<path class="st1" d="M80.8,102.6c0-13.6-0.1-27.3,0-40.9c0.1-9.6,8-18.5,17.6-19.6c4.8-0.6,9.8-0.7,14.6,0.3
			c8.3,1.7,14.6,9.5,15.1,18.4c0.3,4.6,0,9.2,0.1,13.8c0,1.7-0.7,2.3-2.3,2.6c-4.3,0.7-8.6,1.4-12.8,2.3c-1.6,0.3-2-0.1-2-1.6
			c0-5,0-9.9-0.1-14.9c0-3.7-2.5-6.2-6.4-6.2c-3.9-0.1-6.7,2.4-6.7,6.2c-0.4,26.6-0.4,53.2,0,79.7c0.1,3.9,2.4,6,6.5,6
			c4,0.1,6.3-1.8,6.4-5.7c0.2-6.4,0.2-12.8,0.2-19.1c0-1.5,0.3-2.2,1.9-2.3c4.4-0.4,8.8-0.9,13.2-1.4c1.3-0.1,2,0.1,2,1.6
			c0,7.9,0.5,15.8-0.2,23.6c-0.8,9.2-8.3,16.7-17.5,18c-4.4,0.6-8.9,0.8-13.3,0.2c-8.1-1.2-16.2-8.9-16.3-18.4
			c0-12.1-0.1-24.3-0.2-36.4c0-2,0-4.1,0-6.1C80.7,102.6,80.7,102.6,80.8,102.6z"/>
		<path class="st1" d="M242.5,306.3c0,6.1,0,12.1,0,18.1c0,1.2-0.9,1.3-1.8,1.5c-10.5,2.4-21,4.7-31.6,7.2c-1.2,0.3-1.7,0-1.7-1.2
			c0-0.9-0.1-1.8-0.1-2.7c0-45.8,0.1-91.6,0-137.4c0-2.7,0.9-3.7,3.4-4.2c9.9-2.2,19.8-4.5,29.7-6.8c1.8-0.4,2.5-0.1,2.5,1.9
			c-0.1,5-0.1,9.9,0,14.9c0,1.6-0.6,2.4-2.2,2.7c-5.4,1.2-10.9,2.5-16.3,3.6c-1.5,0.3-2.1,0.8-2.1,2.4c0.1,9.6,0.2,19.1,0.1,28.7
			c0,1.8,0.4,2.2,2.3,1.7c4.4-1.2,9-2,13.4-3.1c1.6-0.4,2.2-0.3,2.2,1.5c-0.1,5.2,0,10.5,0.1,15.7c0,1.3-0.4,1.9-1.7,2.2
			c-4.6,1-9.1,2.2-13.7,3.1c-1.7,0.4-2.4,1-2.5,2.9c-0.4,16.5-0.1,32.9,0,49.4c0,2,0.7,2,2.4,1.6
			C230.8,308.8,236.6,307.6,242.5,306.3z"/>
		<path class="st1" d="M315.4,227.5c0-22.9,0-45.7,0-68.6c0-1.9,0.4-2.7,2.5-2.9c4.8-0.4,9.7-1.2,14.5-1.9c1.5-0.2,2.1,0,2.1,1.8
			c-0.1,45.5,0.1,91.1-0.2,136.6c0,2.9-0.7,4.2-3.8,4.4c-4.3,0.3-8.6,0.9-12.9,1.7c-2.3,0.4-2.1-0.8-2.1-2.3
			C315.5,273.4,315.4,250.4,315.4,227.5z"/>
		<path class="st1" d="M140.9,108.7c0-20.2,0-40.4,0-60.6c0-2.4,0.7-2.8,2.9-2.1c2.8,1,5.8,1.8,8.7,2.3c3,0.5,4,1.9,4,5.1
			c-0.1,25.9,0.1,51.9,0.2,77.8c0,8.1,0.2,16.3,0.1,24.4c0,2.1,0.7,2.8,2.7,3.3c5.9,1.4,11.8,3.2,17.7,4.7c1.5,0.4,2.1,1.1,2.1,2.7
			c-0.1,4.5-0.1,9,0,13.5c0,1.5-0.4,2-2,1.6c-11.5-3.2-23-6.3-34.5-9.4c-1.8-0.5-1.8-1.5-1.8-2.9
			C140.9,149.1,140.9,128.9,140.9,108.7C140.9,108.7,140.9,108.7,140.9,108.7z"/>
		<path class="st1" d="M0,190.5c0-10.4,0-20.7,0-31.1c0-1.9,0.6-2.8,2.6-3c4.3-0.3,8.7-0.7,12.9-1.3c4.9-0.7,10.3,4.1,10.1,9.4
			c-0.4,15.3-0.3,30.6-0.1,46c0.1,6-5.3,11.6-10.8,12.3c-4,0.5-8.1,1-12.1,1.6c-2.2,0.4-2.7-0.5-2.7-2.5C0,211.4,0,200.9,0,190.5z"
			/>
		<path class="st1" d="M6.9,138.1c0-0.7-0.1-1.3-0.1-2c0-25.9,0.1-51.9,0-77.8c0-2.6,0.7-3.4,3.3-3.7c6.2-0.6,12.3-1.5,18.4-2.4
			c1.6-0.2,2.5-0.1,2.3,1.9c-0.1,1.2,0,2.5,0.1,3.7c0,5,0,4.9-5,5.5c-2.6,0.3-5.3,0.7-7.9,1c-1.1,0.1-1.6,0.6-1.6,1.6
			c0,6.3,0,12.6,0,18.9c0,1.6,1,1.4,2,1.2c3-0.4,6-0.7,8.9-1.2c1.3-0.2,2-0.1,2,1.4c0,2.5,0,5,0.1,7.4c0.1,1.1-0.4,1.5-1.5,1.6
			c-3.3,0.4-6.7,1-10,1.3c-1.2,0.1-1.6,0.5-1.6,1.7c0.1,8.8,0.1,17.5,0,26.3c0,1.5,0.6,1.5,1.7,1.3c3.6-0.5,7.2-0.9,10.8-1.5
			c1.6-0.3,2.2,0.1,2.1,1.8c-0.2,2.3-0.1,4.6-0.1,6.9c0,1.3-0.4,1.8-1.8,1.9C21.7,136.1,14.4,137.1,6.9,138.1z"/>
		<path class="st1" d="M42,92c0-13,0-26.1-0.1-39.1c0-2.1,0.8-2.8,2.7-2.9c1.8-0.1,3.5-0.3,5.3-0.6c1.4-0.2,1.8,0.2,1.8,1.6
			c0,4.4,0.1,8.9,0.1,13.3c0,18.2,0.1,36.3,0,54.5c0,2.3,0.7,2.6,2.7,2.3c3.6-0.6,7.2-1,10.8-1.5c1.5-0.2,2.1,0.1,2.1,1.7
			c-0.1,2.4,0,4.8,0.1,7.2c0,1.1-0.4,1.5-1.5,1.7c-7.5,1-15.1,2-22.6,3.1c-1.7,0.3-1.4-0.8-1.4-1.7c0-8.8,0-17.5,0-26.3
			c0-4.4,0-8.9,0-13.3C41.9,92,42,92,42,92z"/>
		<path class="st1" d="M42.8,196.8c0,7.8,0,15.5,0,23.2c0,1.2,0.9,1.2,1.6,1.3c3.1,0.5,6.1,1,9.2,1.3c1.5,0.1,1.9,0.8,2,2.2
			c0.3,6,0.2,6.1-5.5,5.2c-4.3-0.7-8.6-1.4-12.9-1.9c-1.5-0.2-2.1-0.6-2.1-2.2c0.1-20.2,0-40.4,0.1-60.6c0-3.4,0.1-3.3,3.3-2.9
			c4.9,0.7,9.8,1.4,14.7,2c1.6,0.2,2.4,0.7,2.4,2.6c0.1,5.5,0.2,5.5-5.2,4.7c-2-0.3-4.1-0.4-6-0.8c-1.2-0.2-1.6,0-1.5,1.2
			c0.1,5.1,0.1,10.3,0.1,15.4c0,1.3,0.5,1.6,1.7,1.7c2.5,0.2,4.9,0.8,7.4,1c1.9,0.1,2.3,0.9,2.3,2.7c0.1,5.3,0.1,5.3-5,4.8
			C47.2,197.5,45.2,197.2,42.8,196.8z"/>
		<path class="st1" d="M93.7,222.1c1.5-13.2,2.9-26.4,4.4-39.7c0.2-1.8,0.6-3.5,0.6-5.3c0-2,0.9-2.5,2.6-2.7c6.1-0.8,6-0.8,6.7,5.2
			c1.5,13.1,3.1,26.2,4.6,39.3c0.1,0.8,0.7,2-0.3,2.4c-1.2,0.5-2.6,0.6-3.9,0.7c-0.6,0-0.4-0.8-0.5-1.3c-0.2-1.8-0.4-3.7-0.4-5.6
			c0-1.8-0.8-2-2.3-1.9c-5.9,0.6-6.1,0.5-6.5,6.9c-0.1,2.7-1.3,3.3-3.5,3.5C93.8,223.8,93.3,223.6,93.7,222.1z"/>
		<path class="st2" d="M74.9,196.7c0,6.9,0.1,13.8,0,20.7c0,1.8,0.4,2.2,2.2,1.8c2.2-0.5,4.4-0.6,6.6-0.8c0.9-0.1,2.3-0.6,1.9,1.1
			c-0.3,1.3,1.2,3.5-1.3,3.9c-4.6,0.7-9.3,1.2-14,1.8c-1.3,0.2-1.2-0.7-1.2-1.5c0-3.2,0-6.4,0-9.6c0-12.5,0-25,0-37.5
			c0-0.8-0.5-2,0.7-2.3c1.5-0.4,3.2-0.6,4.7-0.5c0.5,0,0.3,1.3,0.3,1.9C74.9,182.8,74.9,189.8,74.9,196.7z"/>
	</g>
</g>
</svg>
